<?xml version="1.0" encoding="utf-8"?><svg xmlns="http://www.w3.org/2000/svg" xmlns:xlink="http://www.w3.org/1999/xlink"><symbol fill="none" viewBox="0 0 40 40" id="about_me" xmlns="http://www.w3.org/2000/svg"><path fill-rule="evenodd" clip-rule="evenodd" d="M20 10a5 5 0 1 0 0 10 5 5 0 0 0 0-10Zm-3 5a3 3 0 1 1 6 0 3 3 0 0 1-6 0Z" fill="#fff"/><path d="M16 22a5 5 0 0 0-5 5v2a1 1 0 1 0 2 0v-2a3 3 0 0 1 3-3h8a3 3 0 0 1 3 3v2a1 1 0 1 0 2 0v-2a5 5 0 0 0-5-5h-8Z" fill="#fff"/></symbol><symbol fill="none" viewBox="0 0 40 40" id="blogs" xmlns="http://www.w3.org/2000/svg"><path fill-rule="evenodd" clip-rule="evenodd" d="M28 8.879c-.828 0-1.622.329-2.207.914l-9.5 9.5a.999.999 0 0 0-.263.464l-1 4a1 1 0 0 0 1.213 1.213l4-1a1 1 0 0 0 .464-.263l9.5-9.5A3.121 3.121 0 0 0 28 8.88Zm-.793 2.328a1.121 1.121 0 0 1 1.586 1.586l-9.304 9.304-2.115.529.529-2.115 9.304-9.304Z" fill="#fff"/><path d="M12 11a3 3 0 0 0-3 3v14a3 3 0 0 0 3 3h14a3 3 0 0 0 3-3v-7a1 1 0 1 0-2 0v7a1 1 0 0 1-1 1H12a1 1 0 0 1-1-1V14a1 1 0 0 1 1-1h7a1 1 0 1 0 0-2h-7Z" fill="#fff"/></symbol><symbol fill="none" viewBox="0 0 40 40" id="button" xmlns="http://www.w3.org/2000/svg"><rect width="40" height="40" rx="20" fill="#43454D"/><path fill-rule="evenodd" clip-rule="evenodd" d="M9 13.983V26c0 1.652 1.348 3 3 3h16c1.652 0 3-1.348 3-3V13.982A3.006 3.006 0 0 0 28 11H12a3.006 3.006 0 0 0-3 2.983Zm2.107-.43c.165-.326.505-.553.893-.553h16c.388 0 .728.227.893.554L20 19.779l-8.893-6.225ZM29 15.922V26c0 .548-.452 1-1 1H12c-.548 0-1-.452-1-1V15.92l8.427 5.9a1 1 0 0 0 1.146 0L29 15.92Z" fill="#12F7D6"/></symbol><symbol fill="none" viewBox="0 0 40 40" id="contact" xmlns="http://www.w3.org/2000/svg"><path fill-rule="evenodd" clip-rule="evenodd" d="M9 13.983a1 1 0 0 0 0 .03V26c0 1.652 1.348 3 3 3h16c1.652 0 3-1.348 3-3V13.982A3.006 3.006 0 0 0 28 11H12a3.006 3.006 0 0 0-3 2.983Zm2.107-.43c.165-.326.505-.553.893-.553h16c.388 0 .728.227.893.554L20 19.779l-8.893-6.225ZM29 15.922V26c0 .548-.452 1-1 1H12c-.548 0-1-.452-1-1V15.92l8.427 5.9a1 1 0 0 0 1.146 0L29 15.92Z" fill="#fff"/></symbol><symbol fill="none" viewBox="0 0 64 64" id="css3" xmlns="http://www.w3.org/2000/svg"><path d="m12 8 4 42 16 6 16-6 4-42H12Zm6.664 6h26.64l-.523 6-11.39 6h10.855l-1.023 12.016.039-.016-.551 6L32 48l-10.73-4-.66-8h6.042l.313 4.066L32 41.81l5.043-1.707.691-8.102H20.262l-.516-6 11.82-6H19.22l-.555-6Z" fill="#fff"/></symbol><symbol fill="none" viewBox="0 0 40 40" id="default" xmlns="http://www.w3.org/2000/svg"><rect width="40" height="40" rx="20" fill="#fff"/><path fill-rule="evenodd" clip-rule="evenodd" d="M11 10a1 1 0 0 0-1 1v7a1 1 0 0 0 1 1h7a1 1 0 0 0 1-1v-7a1 1 0 0 0-1-1h-7Zm1 7v-5h5v5h-5Zm10-7a1 1 0 0 0-1 1v7a1 1 0 0 0 1 1h7a1 1 0 0 0 1-1v-7a1 1 0 0 0-1-1h-7Zm1 7v-5h5v5h-5Zm-2 5a1 1 0 0 1 1-1h7a1 1 0 0 1 1 1v7a1 1 0 0 1-1 1h-7a1 1 0 0 1-1-1v-7Zm2 1v5h5v-5h-5Zm-12-2a1 1 0 0 0-1 1v7a1 1 0 0 0 1 1h7a1 1 0 0 0 1-1v-7a1 1 0 0 0-1-1h-7Zm1 7v-5h5v5h-5Z" fill="#292F36"/></symbol><symbol viewBox="0 0 24 24" id="download" xmlns="http://www.w3.org/2000/svg"><path d="M13 3a1 1 0 1 0-2 0v9.586L7.707 9.293a1 1 0 0 0-1.414 1.414l5 5a1 1 0 0 0 1.414 0l5-5a1 1 0 0 0-1.414-1.414L13 12.586V3Z"/><path d="M3 14a1 1 0 0 1 1 1v4a1 1 0 0 0 1 1h14a1 1 0 0 0 1-1v-4a1 1 0 1 1 2 0v4a3 3 0 0 1-3 3H5a3 3 0 0 1-3-3v-4a1 1 0 0 1 1-1Z"/></symbol><symbol viewBox="0 0 20 20" id="github" xmlns="http://www.w3.org/2000/svg"><path d="M10 1.872a8.334 8.334 0 0 0-2.635 16.24c.416.073.572-.177.572-.396 0-.198-.01-.854-.01-1.552-2.094.385-2.635-.51-2.802-.98a3.03 3.03 0 0 0-.854-1.176c-.292-.157-.709-.542-.01-.552a1.668 1.668 0 0 1 1.28.854 1.782 1.782 0 0 0 2.428.687c.036-.423.225-.82.531-1.114-1.854-.209-3.792-.927-3.792-4.115a3.243 3.243 0 0 1 .854-2.24 2.995 2.995 0 0 1 .084-2.208s.698-.219 2.291.854a7.856 7.856 0 0 1 4.167 0c1.594-1.083 2.292-.854 2.292-.854.308.699.338 1.489.083 2.209a3.22 3.22 0 0 1 .854 2.24c0 3.197-1.948 3.905-3.802 4.114a1.973 1.973 0 0 1 .563 1.541c0 1.115-.01 2.01-.01 2.292 0 .219.156.48.572.396A8.338 8.338 0 0 0 10 1.872Z"/></symbol><symbol fill="none" viewBox="0 0 64 64" id="html5" xmlns="http://www.w3.org/2000/svg"><path d="m10.438 8 .187 2.188 3.5 39.562.125 1.375 1.313.375 15.874 4.438.5.124.563-.124 15.875-4.376 1.313-.374.124-1.376 3.563-39.624.188-2.126h-2.188L12.625 8h-2.188Zm4.374 4 34.376.063-3.25 36L32 51.937l-14-3.874L14.812 12Zm4.813 6 1.313 14.938h17.125l-.563 6.437-5.5 1.5h-.063l-5.5-1.5-.312-4.125h-5l.688 7.938L31.938 46H32l10.125-2.813L43.5 28H25.437L25 22.937h18.938L44.374 18h-24.75Z" fill="#fff"/></symbol><symbol fill="none" viewBox="0 0 64 64" id="js" xmlns="http://www.w3.org/2000/svg"><path d="M31.988 6c-.73 0-1.46.18-2.09.54l-19.82 11.44A4.207 4.207 0 0 0 8 21.602v20.757c0 1.5.798 2.881 2.078 3.621l5.203 3c2.52 1.24 3.419 1.239 4.559 1.239 3.74 0 5.879-2.26 5.879-6.18V22.621a.58.58 0 0 0-.578-.582h-2.5a.571.571 0 0 0-.582.582V44.02c0 1.76-1.818 3.48-4.758 2.02l-5.442-3.142a.606.606 0 0 1-.32-.539V21.621c0-.24.12-.442.32-.562L31.68 9.62a.58.58 0 0 1 .622 0L52.12 21.06c.2.12.32.323.32.543V42.36a.63.63 0 0 1-.3.54L32.3 54.358a.68.68 0 0 1-.621 0l-5.102-3.02a.458.458 0 0 0-.476-.038c-1.42.8-1.68.9-3 1.36-.32.1-.82.298.18.858l6.616 3.922c.64.36 1.363.559 2.082.559.74 0 1.458-.199 2.098-.559l19.844-11.46A4.183 4.183 0 0 0 56 42.358V21.621c0-1.5-.798-2.881-2.078-3.621L34.078 6.54c-.63-.36-1.36-.54-2.09-.54Zm5.332 16.012c-5.66 0-9.039 2.398-9.039 6.398 0 4.34 3.357 5.538 8.797 6.078 6.5.64 7 1.603 7 2.883 0 2.2-1.777 3.14-5.957 3.14-5.26 0-6.42-1.321-6.8-3.921a.56.56 0 0 0-.56-.48H28.18a.56.56 0 0 0-.559.562c0 3.34 1.82 7.316 10.5 7.316 6.28 0 9.879-2.477 9.879-6.797 0-4.28-2.9-5.422-8.98-6.242-6.18-.8-6.801-1.22-6.801-2.66 0-1.2.541-2.777 5.101-2.777 4.06 0 5.58.877 6.2 3.617.06.26.278.46.558.46h2.582c.16 0 .298-.078.418-.198.1-.1.16-.262.14-.442-.4-4.72-3.538-6.937-9.898-6.937Z" fill="#fff"/></symbol><symbol fill="none" viewBox="0 0 14 14" id="link" xmlns="http://www.w3.org/2000/svg"><g clip-path="url(#ka)" fill="#12F7D6"><path d="M9.914.622a3.5 3.5 0 0 0-2.462.983l-.006.005-1.003.998a.583.583 0 0 0 .822.827l1-.994a2.333 2.333 0 0 1 3.3 3.299L9.82 7.486a2.334 2.334 0 0 1-3.52-.252.583.583 0 0 0-.934.699 3.5 3.5 0 0 0 5.278.378l1.75-1.75.007-.007A3.5 3.5 0 0 0 9.914.622Z"/><path d="M6.081 4.673a3.5 3.5 0 0 0-2.725 1.016l-1.75 1.75-.007.007a3.5 3.5 0 0 0 4.949 4.95l.007-.008.997-.997a.583.583 0 0 0-.824-.825l-.994.994a2.333 2.333 0 0 1-3.3-3.3l1.747-1.746a2.334 2.334 0 0 1 3.519.252.583.583 0 1 0 .934-.699A3.5 3.5 0 0 0 6.08 4.673Z"/></g><defs><clipPath id="ka"><path fill="#fff" d="M0 0h14v14H0z"/></clipPath></defs></symbol><symbol fill="none" viewBox="0 0 14 14" id="location" xmlns="http://www.w3.org/2000/svg"><path fill-rule="evenodd" clip-rule="evenodd" d="M7 3.5a2.333 2.333 0 1 0 0 4.667A2.333 2.333 0 0 0 7 3.5ZM5.833 5.833a1.167 1.167 0 1 1 2.334 0 1.167 1.167 0 0 1-2.334 0Z" fill="#12F7D6"/><path fill-rule="evenodd" clip-rule="evenodd" d="M6.676 13.902 7 13.417l-.324.485c.196.13.452.13.648 0L7 13.417l.324.485.002-.001.003-.003.014-.009.048-.033a16.67 16.67 0 0 0 .793-.594 18.332 18.332 0 0 0 1.864-1.705c1.336-1.41 2.785-3.448 2.785-5.724a5.834 5.834 0 0 0-11.666 0c0 2.276 1.449 4.315 2.785 5.724a18.328 18.328 0 0 0 2.657 2.299l.048.033.014.01.003.002h.002ZM3.7 2.534a4.667 4.667 0 0 1 7.967 3.3c0 1.807-1.176 3.56-2.465 4.921A17.178 17.178 0 0 1 7 12.701a17.178 17.178 0 0 1-2.202-1.946C3.51 9.395 2.333 7.641 2.333 5.833a4.67 4.67 0 0 1 1.367-3.3Z" fill="#12F7D6"/></symbol><symbol viewBox="0 0 14 14" id="mail" xmlns="http://www.w3.org/2000/svg"><path fill-rule="evenodd" clip-rule="evenodd" d="M.583 3.49v7.01c0 .964.786 1.75 1.75 1.75h9.334c.963 0 1.75-.786 1.75-1.75V3.49a1.753 1.753 0 0 0-1.75-1.74H2.333c-.96 0-1.744.78-1.75 1.74Zm1.23-.25a.587.587 0 0 1 .52-.323h9.334c.226 0 .424.132.52.323L7 6.87 1.812 3.24ZM12.25 4.62v5.88c0 .32-.264.583-.583.583H2.333a.587.587 0 0 1-.583-.583V4.62l4.915 3.441c.201.14.469.14.67 0l4.915-3.44Z"/></symbol><symbol fill="none" viewBox="0 0 32 32" id="monitor" xmlns="http://www.w3.org/2000/svg"><path fill-rule="evenodd" clip-rule="evenodd" d="M17.333 24h9.334a4 4 0 0 0 4-4V6.667a4 4 0 0 0-4-4H5.333a4 4 0 0 0-4 4V20a4 4 0 0 0 4 4h9.334v2.667h-4a1.333 1.333 0 0 0 0 2.666h10.666a1.333 1.333 0 0 0 0-2.666h-4V24Zm-12-18.667C4.597 5.333 4 5.93 4 6.667V20c0 .736.597 1.333 1.333 1.333h21.334c.736 0 1.333-.596 1.333-1.333V6.667c0-.737-.597-1.334-1.333-1.334H5.333Z" fill="#292F36"/></symbol><symbol fill="none" viewBox="0 0 57 55" id="postgres" xmlns="http://www.w3.org/2000/svg"><path d="M49.953 32.378a.935.935 0 0 0-.104-.213c-.258-.471-.885-.612-1.87-.416-3.068.612-4.256.235-4.687-.034 2.49-3.67 4.538-8.102 5.644-12.237.504-1.882 1.481-6.313.227-8.477a2.818 2.818 0 0 0-.28-.421C46.49 7.628 42.977 6.044 38.726 6c-2.776-.025-5.142.621-5.783.86a18.175 18.175 0 0 0-.958-.146 15.434 15.434 0 0 0-2.434-.23c-2.194-.033-4.09.474-5.66 1.507-1.591-.576-8.888-2.948-13.403.14-2.522 1.726-3.686 4.809-3.46 9.164.075 1.466.94 5.974 2.305 10.291.854 2.7 1.742 4.84 2.66 6.418 1.027 1.781 2.09 2.854 3.182 3.206.83.267 2.102.258 3.448-1.304a101.804 101.804 0 0 1 3.61-3.954 5.9 5.9 0 0 0 2.58.675v.008c-.182.208-.332.39-.459.547-.629.77-.76.931-2.784 1.334-.576.114-2.105.419-2.128 1.453-.004.22.061.414.171.586.421.758 1.71 1.092 1.884 1.134 2.477.598 4.648.165 6.257-1.216-.032 3.997.143 7.915.64 9.115.411.99 1.414 3.412 4.583 3.412.465 0 .977-.052 1.54-.169 3.307-.684 4.743-2.095 5.299-5.206.278-1.56.745-5.152 1-7.348.03-.126.066-.216.105-.244.002-.001.13-.084.793.055a.58.58 0 0 0 .082.012l.471.04.028.002c1.572.069 3.548-.256 4.698-.772 1.195-.535 3.351-1.85 2.96-2.992Zm-39.324-5.1c-1.38-4.363-2.186-8.752-2.25-9.982-.201-3.89.774-6.599 2.9-8.05 3.409-2.326 8.982-.969 11.336-.233l-.018.017c-3.756 3.662-3.667 9.919-3.658 10.301 0 .148.012.357.03.644.064 1.052.185 3.01-.137 5.229-.298 2.061.36 4.078 1.806 5.535.148.149.304.291.467.425a93.941 93.941 0 0 0-3.53 3.866c-1.054 1.223-1.782.989-2.021.911-.728-.234-1.51-1.052-2.299-2.37-.89-1.503-1.787-3.64-2.626-6.292Zm11.15 9.115a3.079 3.079 0 0 1-.803-.317c.165-.07.44-.162.897-.253 2.382-.473 2.75-.807 3.553-1.792.184-.225.393-.481.681-.793a.628.628 0 0 0 .137-.232c.317-.271.506-.197.81-.075.29.116.572.466.687.851.053.182.114.528-.084.797-1.678 2.268-4.123 2.238-5.879 1.814Zm3.885-7.145-.097.253c-.247.639-.476 1.232-.619 1.796-1.239-.003-2.444-.514-3.36-1.437-1.165-1.174-1.695-2.807-1.452-4.48.34-2.343.214-4.384.147-5.48-.01-.153-.018-.288-.023-.394.549-.47 3.092-1.785 4.905-1.384.827.183 1.332.727 1.541 1.663 1.085 4.844.144 6.863-.613 8.486-.155.334-.303.65-.429.977Zm13.667 8.192c-.031.317-.067.674-.115 1.068l-.27.785a.619.619 0 0 0-.034.193c-.011.85-.1 1.163-.214 1.558-.117.41-.25.876-.333 1.895-.204 2.533-1.63 3.989-4.486 4.58-2.813.583-3.311-.89-3.751-2.189-.049-.144-.095-.28-.143-.406-.4-1.05-.355-2.53-.292-4.578.03-1.005-.046-3.406-.613-4.741.008-.525.02-1.059.035-1.598a.617.617 0 0 0-.028-.202 2.61 2.61 0 0 0-.081-.372c-.228-.767-.782-1.41-1.447-1.676-.265-.105-.75-.3-1.333-.155.125-.495.34-1.053.574-1.657l.098-.255c.11-.287.249-.583.395-.898.792-1.698 1.876-4.023.7-9.276-.441-1.967-1.913-2.928-4.144-2.705-1.337.134-2.561.655-3.171.954-.123.06-.244.122-.364.186.17-1.982.814-5.687 3.222-8.03.178-.175.366-.34.562-.495a.67.67 0 0 0 .27-.115c1.396-1.023 3.145-1.525 5.2-1.492a20.7 20.7 0 0 1 2.179.145c3.598.635 6.02 2.592 7.49 4.27 1.511 1.723 2.33 3.46 2.656 4.397-2.456-.242-4.126.227-4.973 1.395-1.842 2.542 1.008 7.477 2.377 9.848.252.435.469.81.537.97.446 1.043 1.023 1.74 1.445 2.249.13.156.254.307.35.439-.744.207-2.08.685-1.959 3.076-.022.28-.078.8-.154 1.46-.086.372-.13.824-.185 1.372Zm1.652-2.904c-.075-1.49.5-1.646 1.108-1.81a5.28 5.28 0 0 0 .25-.073c.073.062.155.124.25.184 1.058.675 2.936.755 5.58.24-.374.318-.963.717-1.77 1.078-.76.34-2.033.596-3.242.651-1.336.061-2.015-.144-2.175-.27Zm1.058-16.611c-.011.628-.101 1.2-.196 1.795-.102.64-.208 1.303-.235 2.107-.026.783.075 1.596.173 2.383.198 1.59.401 3.226-.385 4.84a6.212 6.212 0 0 1-.348-.691c-.098-.229-.31-.596-.603-1.104-1.143-1.978-3.819-6.61-2.449-8.5.705-.973 2.489-1.015 4.043-.83Zm.424 12.566a32.282 32.282 0 0 0-.159-.192l-.066-.08c1.348-2.149 1.085-4.275.85-6.16-.096-.774-.187-1.505-.164-2.191.024-.728.123-1.351.22-1.955.118-.743.239-1.513.206-2.42a.97.97 0 0 0 .021-.34c-.084-.87-1.113-3.473-3.21-5.829-1.127-1.267-2.763-2.682-4.989-3.653a17.793 17.793 0 0 1 3.756-.334c3.808.082 6.82 1.458 8.953 4.09.044.054.085.115.125.18 1.341 2.428-.513 11.242-5.544 18.884Z" fill="#fff"/><path d="M24.967 18.783c-.479-.064-.912-.005-1.131.155a.398.398 0 0 0-.172.267c-.027.19.11.401.196.51.24.307.591.519.939.565.05.007.1.01.15.01.58 0 1.106-.435 1.153-.757.058-.403-.548-.671-1.135-.75Zm14.673-.319c-.55.074-1.086.315-1.041.631.036.246.496.666 1.04.666a.951.951 0 0 0 .14-.01c.363-.048.63-.27.757-.4.193-.195.304-.413.284-.555-.046-.316-.628-.406-1.18-.332Z" fill="#fff"/></symbol><symbol viewBox="0 0 512 512" id="python" xmlns="http://www.w3.org/2000/svg"><path d="M256 161h181c33.137 0 60 26.863 60 60v70c0 33.137-26.863 60-60 60h-86m-95 0H75c-33.137 0-60-26.863-60-60v-70c0-33.137 26.863-60 60-60h86" fill="none" stroke="currentColor" stroke-width="30" stroke-linecap="round" stroke-linejoin="round"/><path d="M161 351v86c0 33.137 26.863 60 60 60h70c33.137 0 60-26.863 60-60V256H161V75c0-33.137 26.863-60 60-60h70c33.137 0 60-26.863 60 60v86" fill="none" stroke="currentColor" stroke-width="30" stroke-linecap="round" stroke-linejoin="round"/><circle cx="221" cy="75" r="15" fill="currentColor"/><circle cx="291" cy="437" r="15" fill="currentColor"/></symbol><symbol viewBox="0 0 682.667 682.667" style="enable-background:new 0 0 512 512" xml:space="preserve" id="python_—_копия" xmlns="http://www.w3.org/2000/svg"><defs><clipPath id="pa" clipPathUnits="userSpaceOnUse"><path d="M0 512h512V0H0Z" data-original="#000000"/></clipPath></defs><g clip-path="url(#pa)" transform="matrix(1.33333 0 0 -1.33333 0 682.667)"><path d="M0 0h181c33.137 0 60 26.863 60 60v70c0 33.137-26.863 60-60 60H95" style="stroke-width:30;stroke-linecap:round;stroke-linejoin:round;stroke-miterlimit:10;stroke-dasharray:none;stroke-opacity:1" transform="translate(256 161)" fill="none" stroke="#000" stroke-width="30" stroke-linecap="round" stroke-linejoin="round" stroke-miterlimit="10" data-original="#000000"/><path d="M0 0h-181c-33.137 0-60-26.863-60-60v-70c0-33.137 26.863-60 60-60h86" style="stroke-width:30;stroke-linecap:round;stroke-linejoin:round;stroke-miterlimit:10;stroke-dasharray:none;stroke-opacity:1" transform="translate(256 351)" fill="none" stroke="#000" stroke-width="30" stroke-linecap="round" stroke-linejoin="round" stroke-miterlimit="10" data-original="#000000"/><path d="M0 0v86c0 33.137 26.863 60 60 60h70c33.137 0 60-26.863 60-60V-95H0v-181c0-33.137 26.863-60 60-60h70c33.137 0 60 26.863 60 60v86" style="stroke-width:30;stroke-linecap:round;stroke-linejoin:round;stroke-miterlimit:10;stroke-dasharray:none;stroke-opacity:1" transform="translate(161 351)" fill="none" stroke="#000" stroke-width="30" stroke-linecap="round" stroke-linejoin="round" stroke-miterlimit="10" data-original="#000000"/><path d="M0 0c8.284 0 15-6.716 15-15S8.284-30 0-30s-15 6.716-15 15S-8.284 0 0 0" style="fill-opacity:1;fill-rule:nonzero;stroke:none" transform="translate(221 437)" data-original="#000000"/><path d="M0 0c-8.284 0-15 6.716-15 15s6.716 15 15 15 15-6.716 15-15S8.284 0 0 0" style="fill-opacity:1;fill-rule:nonzero;stroke:none" transform="translate(291 75)" data-original="#000000"/></g></symbol><symbol fill="none" viewBox="0 0 64 64" id="react" xmlns="http://www.w3.org/2000/svg"><path d="M22.809 6.719c-1.691-.112-3.353.19-4.809 1.031-1.942 1.121-3.235 3.035-3.93 5.238-.694 2.204-.855 4.743-.601 7.516.025.28.075.573.11.86-.266.113-.545.217-.802.335-2.528 1.167-4.646 2.574-6.207 4.277C5.01 27.68 4 29.759 4 32s1.01 4.32 2.57 6.023c1.561 1.704 3.68 3.11 6.207 4.278.257.118.536.222.801.336-.034.285-.084.578-.11.86-.253 2.772-.092 5.311.602 7.515.695 2.203 1.988 4.117 3.93 5.238 1.942 1.121 4.244 1.285 6.5.785 2.256-.5 4.534-1.632 6.809-3.238.23-.163.46-.351.691-.524.23.173.461.361.691.524 2.275 1.606 4.553 2.738 6.809 3.238 2.255.5 4.558.336 6.5-.785 1.942-1.121 3.235-3.035 3.93-5.238.694-2.204.855-4.743.601-7.516-.025-.28-.075-.574-.11-.86.266-.113.545-.217.802-.335 2.528-1.167 4.646-2.574 6.207-4.278C58.99 36.32 60 34.243 60 32c0-2.242-1.01-4.32-2.57-6.023-1.561-1.704-3.68-3.11-6.207-4.278-.257-.118-.536-.222-.801-.336.034-.285.084-.578.11-.86.253-2.772.092-5.311-.602-7.515-.695-2.203-1.988-4.117-3.93-5.238-1.942-1.121-4.245-1.285-6.5-.785-2.255.5-4.534 1.632-6.809 3.238-.23.163-.46.351-.691.524-.23-.173-.461-.361-.691-.524-2.275-1.606-4.553-2.738-6.809-3.238a11.25 11.25 0 0 0-1.691-.246Zm-.262 3.984c.34.026.703.082 1.09.168 1.511.335 3.321 1.184 5.23 2.512a46.124 46.124 0 0 0-4.648 5.144 46.158 46.158 0 0 0-6.774 1.45c-.195-2.317-.027-4.31.438-5.786.476-1.51 1.19-2.44 2.117-2.976.696-.402 1.524-.589 2.547-.512Zm18.906 0c1.023-.077 1.851.11 2.547.512.928.536 1.64 1.465 2.117 2.976.466 1.476.633 3.469.438 5.786a46.158 46.158 0 0 0-6.774-1.45 46.124 46.124 0 0 0-4.648-5.144c1.909-1.328 3.719-2.177 5.23-2.512a7.733 7.733 0 0 1 1.09-.168ZM32 15.918a39.2 39.2 0 0 1 2.105 2.129A59.154 59.154 0 0 0 32 18c-.711 0-1.408.022-2.105.047A39.2 39.2 0 0 1 32 15.917ZM32 22c1.93 0 3.799.113 5.598.305A52.942 52.942 0 0 1 40.66 27a52.899 52.899 0 0 1 2.535 5 52.91 52.91 0 0 1-2.535 5 52.957 52.957 0 0 1-3.062 4.695A52.933 52.933 0 0 1 32 42c-1.93 0-3.799-.114-5.598-.305A52.957 52.957 0 0 1 23.34 37a52.91 52.91 0 0 1-2.535-5 52.899 52.899 0 0 1 2.535-5 52.942 52.942 0 0 1 3.062-4.695A52.906 52.906 0 0 1 32 22Zm-11.031 1.2a56.19 56.19 0 0 0-1.094 1.8 59.112 59.112 0 0 0-1.012 1.848 39.196 39.196 0 0 1-.789-2.887c.914-.284 1.89-.533 2.895-.762Zm22.062 0c1.005.228 1.98.477 2.895.76a39.196 39.196 0 0 1-.79 2.888A59.112 59.112 0 0 0 44.126 25a59.218 59.218 0 0 0-1.094-1.8ZM14.31 25.405A46.105 46.105 0 0 0 16.44 32a46.108 46.108 0 0 0-2.132 6.594c-2.103-.989-3.744-2.133-4.79-3.274C8.45 34.152 8 33.071 8 32c0-1.071.45-2.152 1.52-3.32 1.045-1.14 2.686-2.285 4.789-3.274Zm35.382 0c2.103.989 3.744 2.133 4.79 3.274C55.55 29.848 56 30.929 56 32c0 1.071-.45 2.152-1.52 3.32-1.045 1.14-2.686 2.285-4.789 3.274A46.108 46.108 0 0 0 47.56 32a46.105 46.105 0 0 0 2.132-6.594ZM32 26c-3.29 0-6 2.71-6 6s2.71 6 6 6 6-2.71 6-6-2.71-6-6-6Zm0 4c1.128 0 2 .872 2 2 0 1.128-.872 2-2 2-1.128 0-2-.872-2-2 0-1.128.872-2 2-2Zm-13.137 7.152c.328.617.657 1.232 1.012 1.848.355.616.724 1.21 1.094 1.8a39.128 39.128 0 0 1-2.895-.761 39.21 39.21 0 0 1 .79-2.887Zm26.274 0c.304.984.578 1.955.789 2.887-.914.284-1.89.533-2.895.762.37-.592.739-1.185 1.094-1.801.355-.616.684-1.231 1.012-1.848Zm-27.692 6.871c2.1.623 4.367 1.116 6.774 1.45a46.126 46.126 0 0 0 4.648 5.144c-1.909 1.328-3.719 2.177-5.23 2.512-1.547.343-2.71.192-3.637-.344-.928-.536-1.64-1.465-2.117-2.976-.465-1.476-.633-3.47-.438-5.786Zm29.11 0c.195 2.317.028 4.31-.438 5.786-.476 1.51-1.19 2.44-2.117 2.976-.928.536-2.09.687-3.637.344-1.511-.335-3.321-1.184-5.23-2.512a46.126 46.126 0 0 0 4.648-5.144 46.145 46.145 0 0 0 6.774-1.45Zm-16.66 1.93c.697.025 1.394.047 2.105.047.711 0 1.408-.022 2.105-.047-.7.756-1.402 1.48-2.105 2.129a39.161 39.161 0 0 1-2.105-2.129Z" fill="#fff"/></symbol><symbol fill="none" viewBox="0 0 22 22" id="shape" xmlns="http://www.w3.org/2000/svg"><path fill-rule="evenodd" clip-rule="evenodd" d="M21.707.293a.998.998 0 0 1 .23 1.058l-6.993 19.98a1 1 0 0 1-1.858.075l-3.844-8.648L.594 8.914A1 1 0 0 1 .67 7.056L20.649.063a1 1 0 0 1 1.058.23Zm-4.513 3.099L3.711 8.11l6.068 2.696 7.415-7.415Zm-6.001 8.83 7.415-7.416-4.719 13.483-2.696-6.068Z" fill="#292F36"/></symbol><symbol fill="none" viewBox="0 0 40 40" id="skills" xmlns="http://www.w3.org/2000/svg"><path d="M16.707 14.707a1 1 0 0 0-1.414-1.414l-6 6a1 1 0 0 0 0 1.414l6 6a1 1 0 0 0 1.414-1.414L11.414 20l5.293-5.293Zm8-1.414a1 1 0 0 0-1.414 1.414L28.586 20l-5.293 5.293a1 1 0 0 0 1.414 1.414l6-6a1 1 0 0 0 0-1.414l-6-6Z" fill="#fff"/></symbol><symbol fill="none" viewBox="0 0 32 32" id="smartphone" xmlns="http://www.w3.org/2000/svg"><path d="M16 22.667a1.333 1.333 0 1 0 0 2.666h.013a1.333 1.333 0 0 0 0-2.666H16Z" fill="#292F36"/><path fill-rule="evenodd" clip-rule="evenodd" d="M9.333 1.333a4 4 0 0 0-4 4v21.334a4 4 0 0 0 4 4h13.334a4 4 0 0 0 4-4V5.333a4 4 0 0 0-4-4H9.333ZM8 5.333C8 4.597 8.597 4 9.333 4h13.334C23.403 4 24 4.597 24 5.333v21.334c0 .736-.597 1.333-1.333 1.333H9.333A1.333 1.333 0 0 1 8 26.667V5.333Z" fill="#292F36"/></symbol><symbol fill="none" viewBox="0 0 64 64" id="sql" xmlns="http://www.w3.org/2000/svg"><g clip-path="url(#va)" fill="#fff"><path d="M60.8 34.133H46.933V7.467C46.933 2.56 35.13 0 23.467 0S0 2.56 0 7.467V48c0 4.55 10.56 7.14 21.333 7.435V60.8a3.2 3.2 0 0 0 3.2 3.2H60.8a3.2 3.2 0 0 0 3.2-3.2V37.333a3.2 3.2 0 0 0-3.2-3.2Zm-37.333-32C36.49 2.133 44.8 5.292 44.8 7.467S36.49 12.8 23.467 12.8c-13.023 0-21.334-3.158-21.334-5.333 0-2.175 8.31-5.334 21.334-5.334Zm-21.334 8.64c3.92 2.742 12.664 4.16 21.334 4.16s17.414-1.418 21.333-4.16v10.56c0 2.175-8.31 5.334-21.333 5.334-13.023 0-21.334-3.159-21.334-5.334v-10.56Zm0 13.867c3.92 2.741 12.664 4.16 21.334 4.16S40.88 27.381 44.8 24.64v9.493H24.533a3.2 3.2 0 0 0-3.2 3.2v3.163c-11.916-.325-19.2-3.248-19.2-5.296V24.64Zm0 23.36v-9.476c3.673 2.567 11.539 3.908 19.2 4.114v10.655c-11.916-.327-19.2-3.247-19.2-5.293Zm59.734 12.8a1.067 1.067 0 0 1-1.067 1.067H24.533a1.067 1.067 0 0 1-1.066-1.067V37.333a1.066 1.066 0 0 1 1.066-1.066H60.8a1.067 1.067 0 0 1 1.067 1.066V60.8Z"/><path d="M42.667 41.6a4.266 4.266 0 0 0-4.267 4.267v6.4a4.267 4.267 0 0 0 4.267 4.266 4.212 4.212 0 0 0 2.153-.604l.292.292a1.067 1.067 0 0 0 1.509-1.508l-.293-.293c.392-.65.601-1.394.605-2.153v-6.4a4.267 4.267 0 0 0-4.266-4.267Zm1.82 10.98a1.067 1.067 0 0 0-1.508 1.508l.233.232c-.178.05-.36.077-.545.08a2.134 2.134 0 0 1-2.134-2.133v-6.4a2.133 2.133 0 1 1 4.267 0v6.4c-.003.184-.03.367-.08.545l-.233-.233ZM32 43.732a2.133 2.133 0 0 1 2.133 2.134 1.066 1.066 0 1 0 2.134 0A4.267 4.267 0 1 0 32 50.133a2.133 2.133 0 1 1-2.133 2.134 1.067 1.067 0 0 0-2.134 0A4.267 4.267 0 1 0 32 48a2.134 2.134 0 0 1 0-4.267ZM56.533 54.4H51.2V42.667a1.067 1.067 0 0 0-2.133 0v12.8a1.067 1.067 0 0 0 1.066 1.066h6.4a1.066 1.066 0 1 0 0-2.133Z"/></g><defs><clipPath id="va"><path fill="#fff" d="M0 0h64v64H0z"/></clipPath></defs></symbol><symbol viewBox="0 0 24 24" id="telegram" xmlns="http://www.w3.org/2000/svg"><path fill-rule="evenodd" clip-rule="evenodd" d="M22.707 1.293a.998.998 0 0 1 .23 1.058l-6.993 19.98a1 1 0 0 1-1.858.075l-3.844-8.648-8.648-3.844a1 1 0 0 1 .076-1.858l19.979-6.993a1 1 0 0 1 1.058.23ZM18.194 4.39 4.711 9.111l6.067 2.696 7.416-7.416Zm-6.001 8.83 7.415-7.415-4.719 13.483-2.696-6.068Z"/></symbol><symbol fill="none" viewBox="0 0 14 14" id="work" xmlns="http://www.w3.org/2000/svg"><path fill-rule="evenodd" clip-rule="evenodd" d="M5.833 1.167a1.75 1.75 0 0 0-1.75 1.75V3.5h-1.75a1.75 1.75 0 0 0-1.75 1.75v5.833c0 .967.784 1.75 1.75 1.75h9.334a1.75 1.75 0 0 0 1.75-1.75V5.25a1.75 1.75 0 0 0-1.75-1.75h-1.75v-.583a1.75 1.75 0 0 0-1.75-1.75H5.833ZM8.75 3.5v-.583a.583.583 0 0 0-.583-.584H5.833a.583.583 0 0 0-.583.584V3.5h3.5Zm-3.5 1.167h3.5v7h-3.5v-7Zm-1.167 0h-1.75a.583.583 0 0 0-.583.583v5.833c0 .322.261.584.583.584h1.75v-7Zm5.834 7v-7h1.75c.322 0 .583.26.583.583v5.833a.583.583 0 0 1-.583.584h-1.75Z" fill="#12F7D6"/></symbol><symbol fill="none" viewBox="0 0 40 40" id="works" xmlns="http://www.w3.org/2000/svg"><path fill-rule="evenodd" clip-rule="evenodd" d="M21 26h7a3 3 0 0 0 3-3V13a3 3 0 0 0-3-3H12a3 3 0 0 0-3 3v10a3 3 0 0 0 3 3h7v2h-3a1 1 0 1 0 0 2h8a1 1 0 1 0 0-2h-3v-2Zm-9-14a1 1 0 0 0-1 1v10a1 1 0 0 0 1 1h16a1 1 0 0 0 1-1V13a1 1 0 0 0-1-1H12Z" fill="#fff"/></symbol></svg>